<svg xmlns="http://www.w3.org/2000/svg" viewBox="0 0 1551.22 287.82"><defs><style>.cls-1{fill:#fff;}.cls-2{fill:#ffe896;}</style></defs><title>Лого - 1</title><g id="Слой_2" data-name="Слой 2"><path class="cls-1" d="M128,536V380.63s47.93-28.09,71.07-21.48V519.47S209,592.19,285,598.8c0,0,66.11,1.65,92.56-43,0,0,4.9-6.13,4.15,2.72a27.74,27.74,0,0,1-2.72,9.71c-8,16.75-42.38,77.79-114,69.48-4.58-.53-9.16-.88-13.75-1.27-23-1.91-94.37-14.55-123.29-97.17" transform="translate(-128 -351.88)"/><path class="cls-1" d="M209,357.49v157s18.18,76,85.94,72.72,90.9-61.15,90.9-61.15V383.94s-9.91-13.22-66.11-26.45V509.55s-3.3,18.18-21.48,16.53-21.49-16.53-21.49-16.53v-157S213.94,349.23,209,357.49Z" transform="translate(-128 -351.88)"/><path class="cls-1" d="M434.9,369.54h13.49v71.58H434.9Zm6.26,58.58h52.13v13H441.16Zm32.19-58.34h13.49v71.34H473.35Zm9.6,58.34h13.49v29.29H483Z" transform="translate(-128 -351.88)"/><path class="cls-1" d="M519.17,441.85l-5.24-2.68a18.39,18.39,0,0,1-8-7.83A25.82,25.82,0,0,1,503.18,419V413.2a29,29,0,0,1,2.63-12.94,18.34,18.34,0,0,1,7.68-8.18,24.7,24.7,0,0,1,12.18-2.8,19.39,19.39,0,0,1,11.47,3.35,20.51,20.51,0,0,1,7.26,9.72,42.33,42.33,0,0,1,2.49,15.38v3.35H511.94V412h22.64l-.14-1.18a11.93,11.93,0,0,0-2.79-6.84,7.75,7.75,0,0,0-6-2.41c-3.25,0-5.77,1-7.55,2.9s-2.69,4.68-2.69,8.22v6.5q0,5.22,2.93,8.07c1.95,1.91,4.69,2.86,8.2,2.86a15.68,15.68,0,0,0,5.36-1,16.34,16.34,0,0,0,4.83-2.73l8.81,7.82a29.37,29.37,0,0,1-9,5.64,26.73,26.73,0,0,1-10,2Z" transform="translate(-128 -351.88)"/><path class="cls-1" d="M556.29,390h13.48v51.1H556.29Zm7.23,19.74h31.36v12.5H563.52ZM587.1,390h13.49v51.1H587.1Z" transform="translate(-128 -351.88)"/><path class="cls-1" d="M609.49,390h41.65v13H609.49Zm14.08,5.36h13.49v45.74H623.57Z" transform="translate(-128 -351.88)"/><path class="cls-1" d="M660,390h13.49v71.87H660Zm17.63,49.54a13.41,13.41,0,0,1-4.83-6.47l.69-11.67a9.51,9.51,0,0,0,.89,4.29,6.2,6.2,0,0,0,2.58,2.71,8.43,8.43,0,0,0,4.11.93,7.23,7.23,0,0,0,5.88-2.51c1.4-1.67,2.1-4,2.1-7.09v-8.12q0-4.68-2.1-7.26a7.11,7.11,0,0,0-5.88-2.59,8.22,8.22,0,0,0-4.11,1,6.27,6.27,0,0,0-2.58,2.78,10.11,10.11,0,0,0-.89,4.43l-1-11.32a17.16,17.16,0,0,1,5.44-6.91,12.38,12.38,0,0,1,7.45-2.44,15.34,15.34,0,0,1,15.17,10.24,32.45,32.45,0,0,1,2,12.06v8.17a31.72,31.72,0,0,1-2,11.94,15.37,15.37,0,0,1-15.17,10.16A13,13,0,0,1,677.67,439.56Z" transform="translate(-128 -351.88)"/><path class="cls-1" d="M738.1,369.54h13.49v71.58H738.1ZM744,399.08h25.35v13H744Zm14,10.53,12.26-5.17,24.66,36.68H778Zm0-7.78,18.31-32.29h15.56L768,410.64Z" transform="translate(-128 -351.88)"/><path class="cls-1" d="M801,437.94q-4.05-3.92-4.06-11.89,0-7.57,4.56-11.37t13.66-3.79h12.8l.69,10.29H815.19a7.33,7.33,0,0,0-4.58,1.2,4.4,4.4,0,0,0-1.53,3.67,4.09,4.09,0,0,0,1.92,3.72,11.17,11.17,0,0,0,5.81,1.2q5.41,0,8.05-1.23a4,4,0,0,0,2.63-3.84l1,7.44A7,7,0,0,1,826,438a14.61,14.61,0,0,1-5.61,2.88,25.87,25.87,0,0,1-7.11,1Q805.05,441.85,801,437.94Zm26.51-29.22a6.62,6.62,0,0,0-2.36-5.46,10.35,10.35,0,0,0-6.69-1.92,18,18,0,0,0-5.67.93,17,17,0,0,0-5,2.61l-8.37-8.22a20.21,20.21,0,0,1,8.08-5.44,30.65,30.65,0,0,1,11.12-1.94,26.52,26.52,0,0,1,11.42,2.24,16.1,16.1,0,0,1,7.22,6.5,20.09,20.09,0,0,1,2.48,10.26v32.84H827.49Z" transform="translate(-128 -351.88)"/><path class="cls-1" d="M850.62,390h13.49v71.87H850.62Zm17.63,49.54a13.41,13.41,0,0,1-4.83-6.47l.69-11.67a9.51,9.51,0,0,0,.89,4.29,6.2,6.2,0,0,0,2.58,2.71,8.43,8.43,0,0,0,4.11.93,7.26,7.26,0,0,0,5.89-2.51c1.39-1.67,2.09-4,2.09-7.09v-8.12q0-4.68-2.09-7.26a7.14,7.14,0,0,0-5.89-2.59,8.22,8.22,0,0,0-4.11,1,6.27,6.27,0,0,0-2.58,2.78,10.11,10.11,0,0,0-.89,4.43l-1-11.32a17.16,17.16,0,0,1,5.44-6.91,12.39,12.39,0,0,1,7.46-2.44,15.34,15.34,0,0,1,15.16,10.24,32.45,32.45,0,0,1,2,12.06v8.17a31.72,31.72,0,0,1-2,11.94A15.37,15.37,0,0,1,876,441.85,13,13,0,0,1,868.25,439.56Z" transform="translate(-128 -351.88)"/><path class="cls-1" d="M903,390h13.49v51.1H903Zm6.85,38.1h17a4.93,4.93,0,0,0,3.84-1.58,6,6,0,0,0,1.43-4.18,6.75,6.75,0,0,0-.67-3.05,4.9,4.9,0,0,0-1.84-2.05,5.3,5.3,0,0,0-2.76-.71h-17V405h17.62a18.88,18.88,0,0,1,9.3,2.24,15.73,15.73,0,0,1,6.28,6.35,21.2,21.2,0,0,1,0,18.93,15.61,15.61,0,0,1-6.25,6.33,19,19,0,0,1-9.35,2.24H909.89Z" transform="translate(-128 -351.88)"/><path class="cls-1" d="M968.51,441.85l-5.24-2.68a18.29,18.29,0,0,1-8-7.83A25.82,25.82,0,0,1,952.51,419V413.2a29.19,29.19,0,0,1,2.63-12.94,18.45,18.45,0,0,1,7.68-8.18,24.76,24.76,0,0,1,12.19-2.8,19.44,19.44,0,0,1,11.47,3.35,20.64,20.64,0,0,1,7.26,9.72,42.56,42.56,0,0,1,2.48,15.38v3.35h-35V412h22.65l-.15-1.18A11.93,11.93,0,0,0,981,404a7.78,7.78,0,0,0-6-2.41c-3.25,0-5.77,1-7.56,2.9s-2.68,4.68-2.68,8.22v6.5c0,3.48,1,6.17,2.93,8.07s4.68,2.86,8.19,2.86a15.69,15.69,0,0,0,5.37-1,16.29,16.29,0,0,0,4.82-2.73l8.81,7.82a29.33,29.33,0,0,1-8.95,5.64,26.82,26.82,0,0,1-10.05,2Z" transform="translate(-128 -351.88)"/><path class="cls-1" d="M1005.62,390h13.49v71.87h-13.49Zm17.62,49.54a13.45,13.45,0,0,1-4.82-6.47l.69-11.67a9.51,9.51,0,0,0,.88,4.29,6.22,6.22,0,0,0,2.59,2.71,8.43,8.43,0,0,0,4.11.93,7.23,7.23,0,0,0,5.88-2.51c1.4-1.67,2.09-4,2.09-7.09v-8.12c0-3.12-.69-5.54-2.09-7.26a7.11,7.11,0,0,0-5.88-2.59,8.22,8.22,0,0,0-4.11,1,6.29,6.29,0,0,0-2.59,2.78,10.12,10.12,0,0,0-.88,4.43l-1-11.32a17.24,17.24,0,0,1,5.44-6.91,12.43,12.43,0,0,1,7.46-2.44,15.32,15.32,0,0,1,15.16,10.24,32.25,32.25,0,0,1,2,12.06v8.17a31.52,31.52,0,0,1-2,11.94A15.35,15.35,0,0,1,1031,441.85,13.07,13.07,0,0,1,1023.24,439.56Z" transform="translate(-128 -351.88)"/><path class="cls-1" d="M1058,390h13.49v51.1H1058Zm3.4,38.1h17a4.93,4.93,0,0,0,3.84-1.58,6,6,0,0,0,1.43-4.18,6.75,6.75,0,0,0-.67-3.05,4.9,4.9,0,0,0-1.84-2.05,5.3,5.3,0,0,0-2.76-.71h-17V405h17.62a18.88,18.88,0,0,1,9.3,2.24,15.73,15.73,0,0,1,6.28,6.35,21.24,21.24,0,0,1,0,18.93,15.7,15.7,0,0,1-6.26,6.33,19,19,0,0,1-9.35,2.24h-17.62Zm41.15-38.1h13.49v51.1h-13.49Z" transform="translate(-128 -351.88)"/><path class="cls-2" d="M429,472h14.37l21,51.24-8.47,12Zm38.15,56.76a36.57,36.57,0,0,1-4.36,8.64,15.53,15.53,0,0,1-13.56,6.91h-8.32V531.48h5.37a8.74,8.74,0,0,0,4.06-.94,9.27,9.27,0,0,0,3.17-2.83,18.83,18.83,0,0,0,2.41-4.8L474.19,472h13.88Z" transform="translate(-128 -351.88)"/><path class="cls-2" d="M494.14,492.49h13.49v51.1H494.14Zm7.24,19.74h31.36v12.5H501.38ZM525,492.49h13.49v51.1H525Z" transform="translate(-128 -351.88)"/><path class="cls-2" d="M582,543.54V509.72l1.19,1.28-20.63,32.54H550.92v-51h12.9v34.65l-1.18-1.28,20.72-33.37h11.57v51Z" transform="translate(-128 -351.88)"/><path class="cls-2" d="M607.41,492.49h13.43v51.1H607.41Zm6.89,40.56h16.44a6.77,6.77,0,0,0,4.63-1.43,5,5,0,0,0,1.62-4v-.15a4.82,4.82,0,0,0-1.62-3.89,7,7,0,0,0-4.63-1.38H614.3V511.69h16.44a6,6,0,0,0,3.94-1.16,4,4,0,0,0,1.38-3.27,3.78,3.78,0,0,0-1.38-3.13,6,6,0,0,0-3.84-1.11H614.3V492.49h19.34q7.64,0,11.82,3.32t4.18,9.38a11,11,0,0,1-9.6,11.57,12.85,12.85,0,0,1,7.78,4.65,14.17,14.17,0,0,1,2.76,8.93v.15a11.48,11.48,0,0,1-4.46,9.67q-4.46,3.44-12.62,3.43H614.3Z" transform="translate(-128 -351.88)"/><path class="cls-2" d="M675.11,544.32l-5.24-2.68a18.34,18.34,0,0,1-8-7.83,25.82,25.82,0,0,1-2.76-12.38v-5.76a29,29,0,0,1,2.64-12.94,18.34,18.34,0,0,1,7.68-8.18,24.7,24.7,0,0,1,12.18-2.8,19.41,19.41,0,0,1,11.47,3.35,20.64,20.64,0,0,1,7.26,9.72,42.33,42.33,0,0,1,2.49,15.38v3.35h-35v-9.11h22.64l-.15-1.18a11.93,11.93,0,0,0-2.78-6.84,7.76,7.76,0,0,0-6-2.41,9.8,9.8,0,0,0-7.56,2.9c-1.78,1.94-2.68,4.68-2.68,8.22v6.5q0,5.22,2.93,8.07t8.2,2.86a15.68,15.68,0,0,0,5.36-1,16.47,16.47,0,0,0,4.83-2.73l8.81,7.82a29.49,29.49,0,0,1-9,5.64,26.77,26.77,0,0,1-10,2Z" transform="translate(-128 -351.88)"/><path class="cls-2" d="M713.33,492.49h13.49v71.87H713.33ZM731,542a13.48,13.48,0,0,1-4.83-6.48l.69-11.67a9.51,9.51,0,0,0,.89,4.29,6.2,6.2,0,0,0,2.58,2.71,8.43,8.43,0,0,0,4.11.93,7.23,7.23,0,0,0,5.88-2.51c1.4-1.67,2.1-4,2.1-7.09V514.1q0-4.68-2.1-7.26a7.11,7.11,0,0,0-5.88-2.59,8.22,8.22,0,0,0-4.11,1,6.27,6.27,0,0,0-2.58,2.78,10.11,10.11,0,0,0-.89,4.43l-1-11.32a17.16,17.16,0,0,1,5.44-6.91,12.38,12.38,0,0,1,7.45-2.44A15.34,15.34,0,0,1,753.85,502a32.46,32.46,0,0,1,2,12.06v8.17a31.73,31.73,0,0,1-2,11.94,15.41,15.41,0,0,1-15.17,10.16A13.08,13.08,0,0,1,731,542Z" transform="translate(-128 -351.88)"/><path class="cls-2" d="M781.19,544.32l-5.2-2.78a18.46,18.46,0,0,1-7.9-8.1,28,28,0,0,1-2.71-12.79v-5.47a27.38,27.38,0,0,1,2.71-12.67,18.39,18.39,0,0,1,7.9-8,26.28,26.28,0,0,1,12.48-2.76,31.43,31.43,0,0,1,7.9,1,24.22,24.22,0,0,1,6.67,2.78,17.82,17.82,0,0,1,4.93,4.43l-8.72,8.47a13.18,13.18,0,0,0-4.38-2.68,14.4,14.4,0,0,0-5.27-1q-5.11,0-7.92,2.73t-2.81,7.7v5.47q0,5.11,2.81,7.9t7.92,2.78a13.78,13.78,0,0,0,5.32-1,12.4,12.4,0,0,0,4.33-2.95l8.72,9a18.58,18.58,0,0,1-5,4.36,23.77,23.77,0,0,1-6.64,2.73,32.17,32.17,0,0,1-7.88.93Z" transform="translate(-128 -351.88)"/><path class="cls-2" d="M846.88,543.54V509.72l1.18,1.28-20.63,32.54H815.76v-51h12.9v34.65l-1.18-1.28,20.72-33.37h11.57v51Z" transform="translate(-128 -351.88)"/><path class="cls-2" d="M869.78,492.49h41.65v13H869.78Zm14.08,5.36h13.49v45.74H883.86Z" transform="translate(-128 -351.88)"/><path class="cls-2" d="M936,544.32l-5.25-2.68a18.39,18.39,0,0,1-8-7.83A25.82,25.82,0,0,1,920,521.43v-5.76a29,29,0,0,1,2.63-12.94,18.45,18.45,0,0,1,7.68-8.18,24.7,24.7,0,0,1,12.18-2.8,19.39,19.39,0,0,1,11.47,3.35,20.59,20.59,0,0,1,7.27,9.72,42.56,42.56,0,0,1,2.48,15.38v3.35H928.73v-9.11h22.64l-.14-1.18a11.93,11.93,0,0,0-2.79-6.84,7.75,7.75,0,0,0-6-2.41,9.78,9.78,0,0,0-7.55,2.9q-2.68,2.91-2.69,8.22v6.5q0,5.22,2.93,8.07t8.2,2.86a15.77,15.77,0,0,0,5.37-1,16.29,16.29,0,0,0,4.82-2.73l8.81,7.82a29.37,29.37,0,0,1-9,5.64,26.73,26.73,0,0,1-10,2Z" transform="translate(-128 -351.88)"/><path class="cls-2" d="M971.72,492.49h41.65v13H971.72Zm14.08,5.36h13.49v45.74H985.8Z" transform="translate(-128 -351.88)"/><path class="cls-2" d="M1025,540.41q-4.07-3.92-4.06-11.89,0-7.57,4.55-11.37t13.66-3.79h12.8l.69,10.29h-13.44a7.29,7.29,0,0,0-4.57,1.2,4.4,4.4,0,0,0-1.53,3.67,4.08,4.08,0,0,0,1.92,3.72,11.17,11.17,0,0,0,5.81,1.2c3.61,0,6.29-.4,8-1.23a4,4,0,0,0,2.63-3.84l1,7.44a7,7,0,0,1-2.54,4.67,14.61,14.61,0,0,1-5.61,2.88,25.89,25.89,0,0,1-7.12,1Q1029,544.32,1025,540.41Zm26.51-29.22a6.65,6.65,0,0,0-2.36-5.46,10.38,10.38,0,0,0-6.7-1.92,17.63,17.63,0,0,0-5.66.94,16.67,16.67,0,0,0-5,2.6l-8.37-8.22a20.24,20.24,0,0,1,8.07-5.44,30.74,30.74,0,0,1,11.13-1.94,26.55,26.55,0,0,1,11.42,2.24,16,16,0,0,1,7.21,6.5,20,20,0,0,1,2.49,10.26v32.84h-12.26Z" transform="translate(-128 -351.88)"/><path class="cls-2" d="M1099.53,530.59a10.08,10.08,0,0,0,6.08-1.85,11.49,11.49,0,0,0,3.86-5.36,24,24,0,0,0,1.33-8.49V472h13.49v44.25a35.73,35.73,0,0,1-2.78,14.8,20.44,20.44,0,0,1-8.13,9.33,24.62,24.62,0,0,1-12.87,3.2h-1ZM1118,472h32.83v13H1118Zm27.51,0H1159v71.58h-13.49Z" transform="translate(-128 -351.88)"/><path class="cls-2" d="M1181.14,541.71a17.39,17.39,0,0,1-7.53-7.6,25.82,25.82,0,0,1-2.59-12v-8.32a25.26,25.26,0,0,1,2.59-11.88,17.41,17.41,0,0,1,7.53-7.54,28.92,28.92,0,0,1,23.88,0,17.52,17.52,0,0,1,7.53,7.54,25.38,25.38,0,0,1,2.58,11.88v8.47a25.55,25.55,0,0,1-2.58,11.94,17.54,17.54,0,0,1-7.53,7.55,28.62,28.62,0,0,1-23.88,0Zm18.24-12.77a9.37,9.37,0,0,0,2.26-6.72v-8.47a9.2,9.2,0,0,0-2.26-6.64,8.37,8.37,0,0,0-6.35-2.36,8.23,8.23,0,0,0-6.28,2.36,9.28,9.28,0,0,0-2.24,6.64v8.47a9.49,9.49,0,0,0,2.22,6.72,8.16,8.16,0,0,0,6.3,2.39A8.35,8.35,0,0,0,1199.38,528.94Z" transform="translate(-128 -351.88)"/><path class="cls-2" d="M1226.13,497.66q0-7.68,2.34-12.43a14.6,14.6,0,0,1,7.26-7q4.92-2.26,12.85-2.36a11.16,11.16,0,0,0,3.12-.44,3.29,3.29,0,0,0,1.77-1.24A3.75,3.75,0,0,0,1254,472h13.73a17.9,17.9,0,0,1-1.89,8.79,11.32,11.32,0,0,1-5.93,5,29.21,29.21,0,0,1-10.54,1.6,13,13,0,0,0-5.91,1.15,7.12,7.12,0,0,0-3.32,3.65,16.77,16.77,0,0,0-1.06,6.47v17.67h-13Zm10.11,44.05a17.44,17.44,0,0,1-7.53-7.6,26,26,0,0,1-2.58-12v-9.3l10.53-7.43q1.23-5.76,4.68-8.69t9.3-2.93a20.53,20.53,0,0,1,10.56,2.58,16.68,16.68,0,0,1,6.72,7.53,28,28,0,0,1,2.32,11.89v6.5a25.55,25.55,0,0,1-2.59,11.94,17.43,17.43,0,0,1-7.53,7.55,28.62,28.62,0,0,1-23.88,0Zm18.24-12.77a9.38,9.38,0,0,0,2.27-6.72v-6.5a9.2,9.2,0,0,0-2.27-6.64,8.36,8.36,0,0,0-6.35-2.37,8.2,8.2,0,0,0-6.27,2.37,9.23,9.23,0,0,0-2.24,6.64v6.5a9.49,9.49,0,0,0,2.21,6.72,8.19,8.19,0,0,0,6.3,2.39A8.33,8.33,0,0,0,1254.48,528.94Z" transform="translate(-128 -351.88)"/><path class="cls-2" d="M1282.83,540.41q-4.07-3.92-4.06-11.89,0-7.57,4.55-11.37t13.66-3.79h12.8l.69,10.29H1297a7.29,7.29,0,0,0-4.57,1.2,4.4,4.4,0,0,0-1.53,3.67,4.08,4.08,0,0,0,1.92,3.72,11.17,11.17,0,0,0,5.81,1.2c3.61,0,6.29-.4,8-1.23a4,4,0,0,0,2.63-3.84l1,7.44a7,7,0,0,1-2.54,4.67,14.68,14.68,0,0,1-5.61,2.88,25.89,25.89,0,0,1-7.12,1Q1286.89,544.32,1282.83,540.41Zm26.51-29.22a6.65,6.65,0,0,0-2.36-5.46,10.38,10.38,0,0,0-6.7-1.92,17.63,17.63,0,0,0-5.66.94,16.67,16.67,0,0,0-5,2.6l-8.37-8.22a20.24,20.24,0,0,1,8.07-5.44,30.74,30.74,0,0,1,11.13-1.94A26.55,26.55,0,0,1,1311.9,494a16,16,0,0,1,7.21,6.5,20,20,0,0,1,2.49,10.26v32.84h-12.26Z" transform="translate(-128 -351.88)"/><path class="cls-2" d="M1341.68,525.2a15.46,15.46,0,0,1-6.4-6.92,24.92,24.92,0,0,1-2.19-10.93V492.49h13.49v13.73a7.89,7.89,0,0,0,2.14,5.93,8.22,8.22,0,0,0,6,2.1,7.84,7.84,0,0,0,6.1-2.37,9.43,9.43,0,0,0,2.17-6.64v-3.69h5.61v3.83q0,11-4,16.59t-12.85,5.62A20.19,20.19,0,0,1,1341.68,525.2ZM1363,492.49h13.49v51.1H1363Z" transform="translate(-128 -351.88)"/><path class="cls-2" d="M1403.5,544.32l-5.24-2.68a18.34,18.34,0,0,1-8-7.83,25.82,25.82,0,0,1-2.76-12.38v-5.76a29,29,0,0,1,2.64-12.94,18.34,18.34,0,0,1,7.68-8.18,24.7,24.7,0,0,1,12.18-2.8,19.41,19.41,0,0,1,11.47,3.35,20.64,20.64,0,0,1,7.26,9.72,42.33,42.33,0,0,1,2.49,15.38v3.35h-35v-9.11h22.64l-.15-1.18a11.93,11.93,0,0,0-2.78-6.84,7.76,7.76,0,0,0-6-2.41,9.8,9.8,0,0,0-7.56,2.9q-2.68,2.91-2.68,8.22v6.5q0,5.22,2.93,8.07t8.2,2.86a15.68,15.68,0,0,0,5.36-1,16.47,16.47,0,0,0,4.83-2.73l8.81,7.82a29.49,29.49,0,0,1-9,5.64,26.77,26.77,0,0,1-10,2Z" transform="translate(-128 -351.88)"/><path class="cls-2" d="M1456.05,544.32l-5.2-2.78a18.46,18.46,0,0,1-7.9-8.1,28,28,0,0,1-2.7-12.79v-5.47a27.38,27.38,0,0,1,2.7-12.67,18.39,18.39,0,0,1,7.9-8,26.31,26.31,0,0,1,12.48-2.76,31.43,31.43,0,0,1,7.9,1,24.09,24.09,0,0,1,6.67,2.78,17.82,17.82,0,0,1,4.93,4.43l-8.72,8.47a13.18,13.18,0,0,0-4.38-2.68,14.39,14.39,0,0,0-5.26-1q-5.13,0-7.93,2.73t-2.81,7.7v5.47q0,5.11,2.81,7.9t7.93,2.78a13.77,13.77,0,0,0,5.31-1,12.3,12.3,0,0,0,4.33-2.95l8.72,9a18.69,18.69,0,0,1-5,4.36,24,24,0,0,1-6.65,2.73,32.17,32.17,0,0,1-7.88.93Z" transform="translate(-128 -351.88)"/><path class="cls-2" d="M1490.62,492.49h13.49v51.1h-13.49Zm5.86,19h26.34v13h-26.34Zm14,10.53,12.26-5.17,13.83,26.74h-15.4Zm0-7.77,9-21.76h14.08l-13,30.57Z" transform="translate(-128 -351.88)"/><path class="cls-2" d="M1549.84,541.71a17.39,17.39,0,0,1-7.53-7.6,25.82,25.82,0,0,1-2.59-12v-8.32a25.26,25.26,0,0,1,2.59-11.88,17.41,17.41,0,0,1,7.53-7.54,28.92,28.92,0,0,1,23.88,0,17.52,17.52,0,0,1,7.53,7.54,25.38,25.38,0,0,1,2.58,11.88v8.47a25.55,25.55,0,0,1-2.58,11.94,17.54,17.54,0,0,1-7.53,7.55,28.62,28.62,0,0,1-23.88,0Zm18.24-12.77a9.37,9.37,0,0,0,2.26-6.72v-8.47a9.2,9.2,0,0,0-2.26-6.64,8.37,8.37,0,0,0-6.35-2.36,8.23,8.23,0,0,0-6.28,2.36,9.28,9.28,0,0,0-2.24,6.64v8.47a9.49,9.49,0,0,0,2.22,6.72,8.16,8.16,0,0,0,6.3,2.39A8.35,8.35,0,0,0,1568.08,528.94Z" transform="translate(-128 -351.88)"/><path class="cls-2" d="M1594.83,492.49h13.49v51.1h-13.49Zm4.92,0h29.78v13h-29.78Z" transform="translate(-128 -351.88)"/><path class="cls-2" d="M1645.23,541.71a17.39,17.39,0,0,1-7.53-7.6,26,26,0,0,1-2.58-12v-8.32a25.38,25.38,0,0,1,2.58-11.88,17.41,17.41,0,0,1,7.53-7.54,28.92,28.92,0,0,1,23.88,0,17.41,17.41,0,0,1,7.53,7.54,25.38,25.38,0,0,1,2.58,11.88v8.47a25.55,25.55,0,0,1-2.58,11.94,17.43,17.43,0,0,1-7.53,7.55,28.62,28.62,0,0,1-23.88,0Zm18.24-12.77a9.38,9.38,0,0,0,2.27-6.72v-8.47a9.2,9.2,0,0,0-2.27-6.64,8.37,8.37,0,0,0-6.35-2.36,8.23,8.23,0,0,0-6.28,2.36,9.28,9.28,0,0,0-2.24,6.64v8.47a9.49,9.49,0,0,0,2.22,6.72,8.19,8.19,0,0,0,6.3,2.39A8.35,8.35,0,0,0,1663.47,528.94Z" transform="translate(-128 -351.88)"/><path class="cls-1" d="M466.28,623.94V580.07l1.86-.76-29,44.63h-5.6V571.18h6.29v44.3l-1.53.44,28.73-44.74h5.52v52.76Z" transform="translate(-128 -351.88)"/><path class="cls-1" d="M494.38,624.52l-3.65-1.87a12.29,12.29,0,0,1-5.5-5.52,19.78,19.78,0,0,1-1.85-9v-6.21a19,19,0,0,1,1.87-8.87,12.43,12.43,0,0,1,5.5-5.47,19.57,19.57,0,0,1,8.93-1.85,21.64,21.64,0,0,1,5.6.69,15.67,15.67,0,0,1,4.59,2,13.55,13.55,0,0,1,3.47,3.33l-4.61,4.1a11.65,11.65,0,0,0-4-3.12,11.5,11.5,0,0,0-4.91-1.06c-3.31,0-5.83.87-7.53,2.6s-2.56,4.28-2.56,7.64v6.21q0,5.13,2.56,7.78c1.7,1.76,4.22,2.65,7.53,2.65a11.75,11.75,0,0,0,9.19-4.22l4.36,4.25a13.08,13.08,0,0,1-3.49,3.27,15.86,15.86,0,0,1-4.59,2,21.89,21.89,0,0,1-5.58.67Z" transform="translate(-128 -351.88)"/><path class="cls-1" d="M521.06,586.28h6.32V624h-6.32Zm3.6,15.84h13.62V608H524.66Zm8,.58,11.07-16.42h7.55l-15.54,22.16Zm.18,4.79,5.08-3.27L553.53,624h-8.28Z" transform="translate(-128 -351.88)"/><path class="cls-1" d="M554.9,586.28h6.46l12,33.89-3.42,6.9Zm33.37,0-16,46.52a11,11,0,0,1-2.29,4.09,8,8,0,0,1-3.48,2.16,17,17,0,0,1-5.09.65h-1.48v-6h1.48a6.59,6.59,0,0,0,4-1.07,8.19,8.19,0,0,0,2.52-3.72l13.95-42.6Z" transform="translate(-128 -351.88)"/><path class="cls-1" d="M604.28,624.52l-3.65-1.87a12.24,12.24,0,0,1-5.5-5.52,19.65,19.65,0,0,1-1.85-9v-6.21a19,19,0,0,1,1.87-8.87,12.38,12.38,0,0,1,5.5-5.47,19.57,19.57,0,0,1,8.93-1.85,21.56,21.56,0,0,1,5.59.69,15.85,15.85,0,0,1,4.6,2,13.55,13.55,0,0,1,3.47,3.33l-4.62,4.1a11.43,11.43,0,0,0-8.93-4.18q-5,0-7.54,2.6c-1.7,1.73-2.56,4.28-2.56,7.64v6.21c0,3.42.86,6,2.56,7.78s4.22,2.65,7.54,2.65a11.75,11.75,0,0,0,9.19-4.22l4.36,4.25a13.23,13.23,0,0,1-3.49,3.27,16.1,16.1,0,0,1-4.59,2,21.89,21.89,0,0,1-5.58.67Z" transform="translate(-128 -351.88)"/><path class="cls-1" d="M640.87,624.52l-3.64-1.87a12.27,12.27,0,0,1-5.51-5.52,19.78,19.78,0,0,1-1.85-9v-6.21a19,19,0,0,1,1.87-8.87,12.43,12.43,0,0,1,5.5-5.47,19.59,19.59,0,0,1,8.94-1.85,21.56,21.56,0,0,1,5.59.69,15.67,15.67,0,0,1,4.59,2,13.39,13.39,0,0,1,3.47,3.33l-4.61,4.1a11.43,11.43,0,0,0-8.93-4.18q-5,0-7.54,2.6t-2.56,7.64v6.21q0,5.13,2.56,7.78c1.71,1.76,4.22,2.65,7.54,2.65a11.75,11.75,0,0,0,9.18-4.22l4.36,4.25a13.19,13.19,0,0,1-3.48,3.27,16,16,0,0,1-4.6,2,21.81,21.81,0,0,1-5.57.67Z" transform="translate(-128 -351.88)"/><path class="cls-1" d="M665.74,586.28H695v5.78H665.74Zm11.48,3.05h6.32V624h-6.32Z" transform="translate(-128 -351.88)"/><path class="cls-1" d="M704.37,586.28h6.28V624h-6.28Zm4.36,32h13.94a5.9,5.9,0,0,0,4.27-1.39,5.41,5.41,0,0,0,1.44-4v-.11a6,6,0,0,0-1.44-4.34,5.72,5.72,0,0,0-4.27-1.47H708.73v-5.6h13.94a5.46,5.46,0,0,0,3.74-1.12,4.23,4.23,0,0,0,1.27-3.34,5,5,0,0,0-1.25-3.67,4.92,4.92,0,0,0-3.68-1.27h-14v-5.67H723q5.41,0,8.24,2.51t2.84,7.33a8.2,8.2,0,0,1-1.73,5.42,8.07,8.07,0,0,1-5,2.65,9.09,9.09,0,0,1,5.5,3.21,10,10,0,0,1,1.91,6.34v.11q0,5-3,7.55T722.89,624H708.73Z" transform="translate(-128 -351.88)"/><path class="cls-1" d="M750.19,622.6a12.68,12.68,0,0,1-5.32-5.61,19.81,19.81,0,0,1-1.83-8.88V602a19.38,19.38,0,0,1,1.83-8.77,12.71,12.71,0,0,1,5.32-5.56,19.47,19.47,0,0,1,16.78,0,12.71,12.71,0,0,1,5.32,5.56,19.38,19.38,0,0,1,1.83,8.77v6.25a19.43,19.43,0,0,1-1.83,8.8A12.71,12.71,0,0,1,767,622.6a19.29,19.29,0,0,1-16.78,0Zm15.2-6.74q2.42-2.7,2.41-7.64V602q0-4.9-2.41-7.59a8.74,8.74,0,0,0-6.85-2.69,8.63,8.63,0,0,0-6.79,2.69q-2.4,2.68-2.4,7.59v6.25q0,4.93,2.4,7.64a8.58,8.58,0,0,0,6.79,2.71A8.68,8.68,0,0,0,765.39,615.86Z" transform="translate(-128 -351.88)"/><path class="cls-1" d="M809.8,622.6a12.68,12.68,0,0,1-5.32-5.61,19.81,19.81,0,0,1-1.83-8.88V602a19.38,19.38,0,0,1,1.83-8.77,12.71,12.71,0,0,1,5.32-5.56,19.47,19.47,0,0,1,16.78,0,12.77,12.77,0,0,1,5.32,5.56,19.38,19.38,0,0,1,1.83,8.77v6.25a19.43,19.43,0,0,1-1.83,8.8,12.76,12.76,0,0,1-5.32,5.58,19.29,19.29,0,0,1-16.78,0Zm15.2-6.74q2.41-2.7,2.41-7.64V602q0-4.9-2.41-7.59a8.74,8.74,0,0,0-6.85-2.69,8.63,8.63,0,0,0-6.79,2.69Q809,597.06,809,602v6.25q0,4.93,2.4,7.64a8.58,8.58,0,0,0,6.79,2.71A8.68,8.68,0,0,0,825,615.86Z" transform="translate(-128 -351.88)"/><path class="cls-1" d="M842,586.28h29.27v5.78H842Zm11.48,3.05h6.32V624h-6.32Z" transform="translate(-128 -351.88)"/><path class="cls-1" d="M880.63,586.28H887V624h-6.32Zm3.6,15.84h13.61V608H884.23Zm8,.58,11.08-16.42h7.55l-15.54,22.16Zm.18,4.79,5.09-3.27L913.1,624h-8.28Z" transform="translate(-128 -351.88)"/><path class="cls-1" d="M918.46,586.28h6.32v53h-6.32Zm10,36.65a9.37,9.37,0,0,1-4.16-4.87l.51-7.88a9.56,9.56,0,0,0,1,4.45,7.74,7.74,0,0,0,2.92,3.14,8.63,8.63,0,0,0,4.56,1.16,8.34,8.34,0,0,0,6.5-2.52,10.24,10.24,0,0,0,2.29-7.1v-8.17c0-3.13-.77-5.54-2.29-7.25a8.26,8.26,0,0,0-6.5-2.56,8.81,8.81,0,0,0-4.56,1.13,7.53,7.53,0,0,0-2.92,3.08,9.31,9.31,0,0,0-1,4.36l-.76-7.26a12.19,12.19,0,0,1,4.83-5.19,13.64,13.64,0,0,1,6.86-1.71,12.58,12.58,0,0,1,6.85,1.8,11.27,11.27,0,0,1,4.34,5.24,21,21,0,0,1,1.49,8.32v8.21a19.94,19.94,0,0,1-1.53,8.2,11.37,11.37,0,0,1-4.47,5.22,13.32,13.32,0,0,1-7,1.79A14,14,0,0,1,928.43,622.93Z" transform="translate(-128 -351.88)"/><path class="cls-1" d="M958.94,586.28h6.28V624h-6.28ZM962.17,618h10.9a5.94,5.94,0,0,0,4.43-1.7,6.23,6.23,0,0,0,1.67-4.54,6.88,6.88,0,0,0-.76-3.31,5.52,5.52,0,0,0-2.14-2.2,6.43,6.43,0,0,0-3.2-.78h-10.9v-6h10.61a14.91,14.91,0,0,1,6.86,1.52,11.23,11.23,0,0,1,4.63,4.29,13.28,13.28,0,0,1,0,12.82,11.09,11.09,0,0,1-4.61,4.28,14.92,14.92,0,0,1-6.9,1.53H962.17Zm30.18-31.74h6.28V624h-6.28Z" transform="translate(-128 -351.88)"/><path class="cls-1" d="M1010.1,586.28h6.28V624h-6.28Zm4.36,32h13.94a5.9,5.9,0,0,0,4.27-1.39,5.41,5.41,0,0,0,1.44-4v-.11a6,6,0,0,0-1.44-4.34,5.72,5.72,0,0,0-4.27-1.47h-13.94v-5.6h13.94a5.51,5.51,0,0,0,3.75-1.12,4.26,4.26,0,0,0,1.27-3.34,5,5,0,0,0-1.26-3.67,4.92,4.92,0,0,0-3.68-1.27h-14v-5.67h14.27q5.41,0,8.25,2.51c1.88,1.67,2.83,4.11,2.83,7.33a8.2,8.2,0,0,1-1.73,5.42,8.07,8.07,0,0,1-5,2.65,9.06,9.06,0,0,1,5.5,3.21,10,10,0,0,1,1.91,6.34v.11q0,5-3,7.55c-2,1.72-5,2.58-8.85,2.58h-14.16Z" transform="translate(-128 -351.88)"/><path class="cls-1" d="M1051.58,621.54q-3.54-3-3.54-8.67,0-5.46,3.25-8.32t9.46-2.87h11.62l.51,5.41h-12.09a7.44,7.44,0,0,0-5,1.47,5.37,5.37,0,0,0-1.7,4.31,5.3,5.3,0,0,0,2.19,4.61,11,11,0,0,0,6.41,1.56,19.79,19.79,0,0,0,7-.94c1.58-.63,2.37-1.57,2.37-2.8l.77,5.12a9.16,9.16,0,0,1-2.65,2.27,12.6,12.6,0,0,1-3.67,1.38,21.62,21.62,0,0,1-4.58.45Q1055.13,624.52,1051.58,621.54ZM1072,600.08a8.82,8.82,0,0,0-2.21-6.42,8.32,8.32,0,0,0-6.28-2.29,15.48,15.48,0,0,0-4.85.78,13.74,13.74,0,0,0-4.2,2.19l-4.61-3.15a14.18,14.18,0,0,1,5.65-4,20.51,20.51,0,0,1,7.79-1.43,18,18,0,0,1,8,1.65,11.5,11.5,0,0,1,5.08,4.79,15.44,15.44,0,0,1,1.74,7.58V624H1072Z" transform="translate(-128 -351.88)"/><path class="cls-1" d="M1087.18,586.28h29.27v5.78h-29.27Zm11.47,3.05H1105V624h-6.32Z" transform="translate(-128 -351.88)"/><path class="cls-1" d="M1125.81,586.28h6.32V624h-6.32ZM1129,618H1142a5.89,5.89,0,0,0,4.39-1.7,6.19,6.19,0,0,0,1.67-4.54,7.11,7.11,0,0,0-.74-3.31,5.4,5.4,0,0,0-2.14-2.2,6.46,6.46,0,0,0-3.18-.78H1129v-6h12.64a14.91,14.91,0,0,1,6.86,1.52,11.23,11.23,0,0,1,4.63,4.29,13.35,13.35,0,0,1,0,12.82,11.09,11.09,0,0,1-4.61,4.28,14.92,14.92,0,0,1-6.9,1.53H1129Z" transform="translate(-128 -351.88)"/><path class="cls-1" d="M1184.25,586.28h6.32V624h-6.32Zm3.89,0h24.59v6h-24.59Zm21,0h6.32V624h-6.32Z" transform="translate(-128 -351.88)"/><path class="cls-1" d="M1236.87,624.52l-3.71-2a13.24,13.24,0,0,1-5.65-5.77,19.89,19.89,0,0,1-1.94-9.13v-4.25a22.16,22.16,0,0,1,1.87-9.55,13.41,13.41,0,0,1,5.43-6,16.76,16.76,0,0,1,8.57-2.07,14.28,14.28,0,0,1,8.06,2.2,13.76,13.76,0,0,1,5.11,6.37,25.91,25.91,0,0,1,1.76,10.06v3.38H1230v-5.31h20.37v-.18c-.1-3.41-.92-6.06-2.49-7.93a8,8,0,0,0-6.48-2.82,9.12,9.12,0,0,0-7.33,3c-1.72,2-2.58,4.82-2.58,8.48v4.79c0,3.46.92,6.13,2.76,8s4.44,2.8,7.81,2.8a12.4,12.4,0,0,0,4.83-1,13.44,13.44,0,0,0,4.24-2.82l4.22,4.14a20,20,0,0,1-6.25,4.16,18,18,0,0,1-7,1.47Z" transform="translate(-128 -351.88)"/><path class="cls-1" d="M1266.09,586.28h6.32v53h-6.32Zm10,36.65a9.37,9.37,0,0,1-4.16-4.87l.51-7.88a9.56,9.56,0,0,0,1,4.45,7.74,7.74,0,0,0,2.92,3.14,8.63,8.63,0,0,0,4.56,1.16,8.35,8.35,0,0,0,6.5-2.52,10.24,10.24,0,0,0,2.29-7.1v-8.17c0-3.13-.77-5.54-2.29-7.25a8.27,8.27,0,0,0-6.5-2.56,8.81,8.81,0,0,0-4.56,1.13,7.53,7.53,0,0,0-2.92,3.08,9.31,9.31,0,0,0-1,4.36l-.76-7.26a12.19,12.19,0,0,1,4.83-5.19,13.64,13.64,0,0,1,6.86-1.71,12.6,12.6,0,0,1,6.85,1.8,11.27,11.27,0,0,1,4.34,5.24,21,21,0,0,1,1.48,8.32v8.21a19.94,19.94,0,0,1-1.52,8.2,11.37,11.37,0,0,1-4.47,5.22,13.32,13.32,0,0,1-7,1.79A14,14,0,0,1,1276.06,622.93Z" transform="translate(-128 -351.88)"/><path class="cls-1" d="M1316,624.52l-3.65-1.87a12.29,12.29,0,0,1-5.5-5.52,19.78,19.78,0,0,1-1.85-9v-6.21a19,19,0,0,1,1.87-8.87,12.43,12.43,0,0,1,5.5-5.47,19.59,19.59,0,0,1,8.94-1.85,21.56,21.56,0,0,1,5.59.69,15.67,15.67,0,0,1,4.59,2,13.39,13.39,0,0,1,3.47,3.33l-4.61,4.1a11.43,11.43,0,0,0-8.94-4.18q-5,0-7.53,2.6t-2.56,7.64v6.21q0,5.13,2.56,7.78c1.71,1.76,4.22,2.65,7.53,2.65a11.75,11.75,0,0,0,9.19-4.22l4.36,4.25a13.08,13.08,0,0,1-3.49,3.27,15.86,15.86,0,0,1-4.59,2,21.81,21.81,0,0,1-5.57.67Z" transform="translate(-128 -351.88)"/><path class="cls-1" d="M1342.7,586.28H1349V624h-6.31Zm3.88,0h24.59v6h-24.59Zm21,0h6.32V624h-6.32Z" transform="translate(-128 -351.88)"/><path class="cls-1" d="M1395.31,624.52l-3.71-2a13.16,13.16,0,0,1-5.64-5.77,19.76,19.76,0,0,1-2-9.13v-4.25a22.16,22.16,0,0,1,1.87-9.55,13.41,13.41,0,0,1,5.43-6,16.76,16.76,0,0,1,8.57-2.07,14.28,14.28,0,0,1,8.06,2.2,13.76,13.76,0,0,1,5.11,6.37,25.91,25.91,0,0,1,1.76,10.06v3.38h-26.33v-5.31h20.37v-.18c-.1-3.41-.92-6.06-2.49-7.93a8,8,0,0,0-6.48-2.82,9.12,9.12,0,0,0-7.33,3c-1.72,2-2.58,4.82-2.58,8.48v4.79c0,3.46.92,6.13,2.76,8s4.44,2.8,7.81,2.8a12.4,12.4,0,0,0,4.83-1,13.44,13.44,0,0,0,4.24-2.82l4.22,4.14a19.87,19.87,0,0,1-6.25,4.16,18,18,0,0,1-7,1.47Z" transform="translate(-128 -351.88)"/><path class="cls-1" d="M1424.53,586.28h6.32V624h-6.32Zm3.6,15.84h13.61V608h-13.61Zm8,.58,11.08-16.42h7.55l-15.54,22.16Zm.18,4.79,5.09-3.27L1457,624h-8.28Z" transform="translate(-128 -351.88)"/><path class="cls-1" d="M1460.54,586.28h29.28v5.78h-29.28Zm11.48,3.05h6.32V624H1472Z" transform="translate(-128 -351.88)"/><path class="cls-1" d="M1523.94,623.94V595.43l.87,1-20.3,27.56h-5.34V586.28h6.25v29.13l-.87-.95,20.37-28.18h5.27v37.66Z" transform="translate(-128 -351.88)"/><path class="cls-1" d="M1541.36,586.28h6.28V624h-6.28Zm4.36,32h14a5.88,5.88,0,0,0,4.26-1.39,5.41,5.41,0,0,0,1.44-4v-.11a6,6,0,0,0-1.44-4.34,5.69,5.69,0,0,0-4.26-1.47h-14v-5.6h14a5.5,5.5,0,0,0,3.74-1.12,4.26,4.26,0,0,0,1.27-3.34,5,5,0,0,0-1.26-3.67,4.92,4.92,0,0,0-3.68-1.27h-14v-5.67H1560q5.41,0,8.25,2.51c1.88,1.67,2.83,4.11,2.83,7.33a8.2,8.2,0,0,1-1.73,5.42,8.07,8.07,0,0,1-5,2.65,9.06,9.06,0,0,1,5.5,3.21,10,10,0,0,1,1.91,6.34v.11q0,5-3,7.55c-2,1.72-5,2.58-8.85,2.58h-14.16Z" transform="translate(-128 -351.88)"/><path class="cls-1" d="M1581.59,586.28h6.28V624h-6.28Zm3.23,31.74h10.9a6,6,0,0,0,4.43-1.7,6.23,6.23,0,0,0,1.67-4.54,6.89,6.89,0,0,0-.77-3.31,5.46,5.46,0,0,0-2.14-2.2,6.36,6.36,0,0,0-3.19-.78h-10.9v-6h10.61a14.93,14.93,0,0,1,6.86,1.52,11.29,11.29,0,0,1,4.63,4.29,13.35,13.35,0,0,1,0,12.82,11.09,11.09,0,0,1-4.61,4.28,14.92,14.92,0,0,1-6.9,1.53h-10.61ZM1615,586.28h6.28V624H1615Z" transform="translate(-128 -351.88)"/></g></svg>